<svg width="130" height="23" viewBox="0 0 130 23" fill="none" xmlns="http://www.w3.org/2000/svg">
<path d="M5 18H0.5V0.5H5V7.375H7.25L11.15 0.5H15.9L11 9.125L15.875 18H11.125L7.25 10.875H5V18Z" fill="white"/>
<path d="M22.2695 7.625C21.6029 7.625 21.2695 7.95833 21.2695 8.625V10H25.5195V8.625C25.5195 7.95833 25.1862 7.625 24.5195 7.625H22.2695ZM29.3945 17.75C26.1779 18.0833 23.2612 18.25 20.6445 18.25C19.5112 18.25 18.6029 17.9083 17.9195 17.225C17.2362 16.5417 16.8945 15.6333 16.8945 14.5V8.5C16.8945 7.25 17.2445 6.275 17.9445 5.575C18.6612 4.85833 19.6445 4.5 20.8945 4.5H25.8945C27.1445 4.5 28.1195 4.85833 28.8195 5.575C29.5362 6.275 29.8945 7.25 29.8945 8.5V13.125H21.2695V14.125C21.2695 14.375 21.3529 14.5833 21.5195 14.75C21.6862 14.9167 21.8945 15 22.1445 15C23.7945 15 26.2112 14.875 29.3945 14.625V17.75Z" fill="white"/>
<path d="M37.2598 7.625C36.5931 7.625 36.2598 7.95833 36.2598 8.625V10H40.5098V8.625C40.5098 7.95833 40.1764 7.625 39.5098 7.625H37.2598ZM44.3848 17.75C41.1681 18.0833 38.2514 18.25 35.6348 18.25C34.5014 18.25 33.5931 17.9083 32.9098 17.225C32.2264 16.5417 31.8848 15.6333 31.8848 14.5V8.5C31.8848 7.25 32.2348 6.275 32.9348 5.575C33.6514 4.85833 34.6348 4.5 35.8848 4.5H40.8848C42.1348 4.5 43.1098 4.85833 43.8098 5.575C44.5264 6.275 44.8848 7.25 44.8848 8.5V13.125H36.2598V14.125C36.2598 14.375 36.3431 14.5833 36.5098 14.75C36.6764 14.9167 36.8848 15 37.1348 15C38.7848 15 41.2014 14.875 44.3848 14.625V17.75Z" fill="white"/>
<path d="M54.5 8.125C53.6167 8.125 52.6167 8.29167 51.5 8.625V14.625H55.25C55.9167 14.625 56.25 14.2917 56.25 13.625V9C56.25 8.75 56.1667 8.54167 56 8.375C55.8333 8.20833 55.625 8.125 55.375 8.125H54.5ZM51.5 18V22.25H47.125V4.75H51L51.25 6C52.0333 5.48333 52.8333 5.10833 53.65 4.875C54.4833 4.625 55.1833 4.5 55.75 4.5H56.875C58.0083 4.5 58.9167 4.84167 59.6 5.525C60.2833 6.20833 60.625 7.11667 60.625 8.25V14C60.625 15.25 60.2667 16.2333 59.55 16.95C58.85 17.65 57.875 18 56.625 18H51.5Z" fill="white"/>
<path d="M71.6221 18H67.1221V4H61.8721V0.5H76.8721V4H71.6221V18Z" fill="white"/>
<path d="M84.7549 8.375C83.7049 8.375 82.6215 8.625 81.5049 9.125V18H77.1299V4.75H81.0049L81.2549 6.375C82.6882 5.125 84.1882 4.5 85.7549 4.5H86.8799V8.375H84.7549Z" fill="white"/>
<path d="M92.8779 14.75C93.7613 14.75 94.7613 14.5833 95.8779 14.25V12.75H92.2529C92.0029 12.75 91.7946 12.8333 91.6279 13C91.4613 13.1667 91.3779 13.375 91.3779 13.625V13.875C91.3779 14.125 91.4613 14.3333 91.6279 14.5C91.7946 14.6667 92.0029 14.75 92.2529 14.75H92.8779ZM88.2529 5C91.3029 4.66667 94.0529 4.5 96.5029 4.5C97.6363 4.5 98.5446 4.84167 99.2279 5.525C99.9113 6.20833 100.253 7.11667 100.253 8.25V18H96.3779L96.1279 16.75C95.3446 17.2667 94.5363 17.65 93.7029 17.9C92.8863 18.1333 92.1946 18.25 91.6279 18.25H90.7529C89.6196 18.25 88.7113 17.9083 88.0279 17.225C87.3446 16.5417 87.0029 15.6333 87.0029 14.5V13.375C87.0029 12.2417 87.3446 11.3333 88.0279 10.65C88.7113 9.96667 89.6196 9.625 90.7529 9.625H95.8779V8.625C95.8779 8.375 95.7946 8.16667 95.6279 8C95.4613 7.83333 95.2529 7.75 95.0029 7.75C93.9196 7.75 92.7196 7.8 91.4029 7.9C90.1029 8 89.0529 8.075 88.2529 8.125V5Z" fill="white"/>
<path d="M114.246 17.75C111.129 18.0833 108.379 18.25 105.996 18.25C104.863 18.25 103.954 17.9083 103.271 17.225C102.588 16.5417 102.246 15.6333 102.246 14.5V8.75C102.246 7.5 102.596 6.525 103.296 5.825C104.013 5.10833 104.996 4.75 106.246 4.75H114.246V8.125H107.621C106.954 8.125 106.621 8.45833 106.621 9.125V14C106.621 14.25 106.704 14.4583 106.871 14.625C107.038 14.7917 107.246 14.875 107.496 14.875C108.996 14.875 111.246 14.75 114.246 14.5V17.75Z" fill="white"/>
<path d="M120.616 12.75V18H116.241V0.5H120.616V9.375H122.616L125.366 4.75H129.991L126.241 11.125L129.991 18H125.366L122.491 12.75H120.616Z" fill="white"/>
</svg>
